<?xml version="1.0" encoding="UTF-8"?><svg id="Capa_2" xmlns="http://www.w3.org/2000/svg" viewBox="0 0 32 32"><defs><style>.cls-1{fill:#2c3f46;}.cls-2{fill:none;}</style></defs><g id="Capa_1-2"><rect class="cls-2" width="32" height="32" rx="4.34" ry="4.34"/><path class="cls-1" d="m22.03,31.14v-8.94c1.67.49,3.28.44,4.8-.47.71-.43,1.22-1.07,1.7-1.81-.25,0-.45,0-.64,0-.61,0-.59,0-.81-.55-.71-1.83-1.43-3.66-2.15-5.49-.11-.27-.23-.54-.35-.83.18-.09.36-.17.52-.27.75-.48,1.18-1.28.88-2.17-.36-1.06-1.55-1.39-2.28-.63-.33.35-.43.92-.24,1.34.14.3.38.45.69.41.27-.03.48-.28.52-.6.03-.25-.15-.51-.42-.63-.05-.02-.09-.05-.14-.08.28-.3.73-.28.99.03.43.54.22,1.31-.44,1.64-.41.21-.85.24-1.27.14-.42-.11-.83-.29-1.24-.47-.07-.03-.13-.16-.13-.25-.01-.49,0-.98,0-1.46,0-1.98,0-3.96,0-5.94,0-.08,0-.16,0-.27.09.04.16.07.22.1,2.27,1.32,4.54,2.64,6.81,3.96.55.32,1.09.64,1.65.95.23.12.31.27.31.53-.01,2.55,0,5.09,0,7.64,0,2.71,0,5.41,0,8.12,0,.22-.07.35-.26.46-1.05.66-2.1,1.32-3.15,1.99-1.71,1.08-3.43,2.16-5.14,3.25-.13.08-.26.17-.42.28Z"/><path class="cls-1" d="m3.33,19.92c.69,1.18,1.65,1.99,2.95,2.36,1.27.37,2.54.29,3.81-.19v9c-.11-.06-.21-.1-.3-.16-2.31-1.44-4.62-2.89-6.93-4.34-.55-.34-1.1-.68-1.66-1.01-.17-.1-.19-.23-.19-.4,0-3.09,0-6.19,0-9.28,0-2.2,0-4.41,0-6.61,0-.18.06-.28.22-.37,1.42-.81,2.84-1.62,4.27-2.43,1.07-.61,2.13-1.22,3.2-1.83.4-.23.8-.46,1.2-.7.05-.03.11-.05.2-.1,0,.1.02.17.02.24,0,2.38,0,4.75,0,7.13,0,.2-.06.33-.24.43-.55.33-1.12.59-1.77.63-.42.03-.82-.06-1.16-.32-.51-.39-.6-1.05-.21-1.5.23-.26.51-.32.82-.16.05.03.09.08.14.13-.05.04-.09.09-.14.12-.45.22-.51.78-.1,1.06.23.16.54.13.75-.06.29-.27.35-.71.16-1.18-.39-.92-1.51-1.11-2.16-.34-.8.93-.44,2.05.29,2.6.18.13.38.24.58.33.14.06.17.12.11.27-.57,1.42-1.14,2.84-1.7,4.26-.29.74-.59,1.48-.87,2.23-.06.16-.14.19-.29.19-.31-.01-.62,0-.97,0Z"/><path class="cls-1" d="m19.42,19.92c.04.08.05.14.09.19.31.37.63.74.94,1.12.06.07.12.18.12.27,0,2.14,0,4.28,0,6.41,0,.26,0,.25-.26.25-1.23,0-2.46,0-3.68,0-.18,0-.24-.04-.24-.23,0-6.08,0-12.17,0-18.25,0-.18.06-.22.22-.19.53.11,1.01.33,1.48.6.85.49,1.62,1.09,2.37,1.71.06.05.11.15.11.23,0,2.56,0,5.12,0,7.68,0,.17-.05.21-.22.21-.3-.01-.6,0-.94,0Z"/><path class="cls-1" d="m12.39,19.92c-.27,0-.49,0-.72,0-.16,0-.2-.05-.2-.2,0-2.6,0-5.2,0-7.8,0-.15.05-.26.17-.35.81-.63,1.61-1.27,2.54-1.71.32-.15.66-.25,1-.37.16-.05.23,0,.22.18-.01.36,0,.73,0,1.09,0,5.61,0,11.23,0,16.84,0,.11,0,.21,0,.32.02.17-.04.23-.22.23-.83-.01-1.66-.02-2.5-.02-.32,0-.65,0-.97.03-.19.01-.25-.05-.25-.24,0-1.89,0-3.77,0-5.66,0-.31-.02-.62,0-.93,0-.11.06-.24.13-.33.19-.24.4-.46.59-.69.08-.1.12-.23.19-.38Z"/><path class="cls-1" d="m20.56.87v9.65c-.19-.15-.35-.27-.5-.4-.61-.51-1.25-1-1.99-1.33-.47-.21-.96-.36-1.45-.51-.16-.05-.25-.1-.24-.28.01-.18,0-.37-.02-.55,0-.13.02-.2.17-.24,1.09-.3,1.82-1.31,1.76-2.45-.05-1.06-.92-2-2.01-2.2-.91-.16-1.88.29-2.42,1.13-.49.76-.49,1.75.01,2.46.34.49.78.86,1.36,1.04.14.04.19.12.18.26-.01.2,0,.41.01.61,0,.13-.03.19-.16.22-.9.17-1.72.54-2.47,1.07-.37.26-.72.56-1.08.83-.06.05-.13.08-.22.14,0-.1-.01-.17-.01-.23,0-3,0-5.99,0-8.99,0-.19.05-.25.24-.25,2.88,0,5.76,0,8.64,0,.06,0,.13,0,.2,0Z"/><path class="cls-1" d="m5.6,19.87c.75-1.9,1.49-3.78,2.23-5.66.02,0,.04,0,.06,0,.74,1.88,1.49,3.76,2.24,5.66h-4.53Z"/><path class="cls-1" d="m26.2,19.87h-4.17c-.02-.44-.02-.85.15-1.26.57-1.43,1.11-2.86,1.67-4.29.03-.07.06-.13.1-.21.76,1.93,1.5,3.84,2.25,5.77Z"/><path class="cls-1" d="m17.47,4.91c0,.86-.71,1.57-1.58,1.56-.84,0-1.56-.72-1.56-1.55,0-.85.72-1.6,1.56-1.6.88,0,1.58.71,1.59,1.59Z"/><path class="cls-1" d="m8.53,13.15c.14-.03.26-.05.37-.08.32-.1.64-.2.95-.31.22-.08.24-.08.24.17,0,1.05,0,2.11,0,3.16,0,.28,0,.55,0,.87-.05-.06-.1-.1-.12-.15-.38-.96-.75-1.93-1.13-2.89-.1-.24-.21-.48-.33-.76Z"/><path class="cls-1" d="m22.03,16.14v-3.33c.41.12.8.24,1.21.36-.39.99-.77,1.99-1.16,2.98-.02,0-.04-.01-.05-.02Z"/></g></svg>