<?xml version="1.0" encoding="UTF-8"?><svg id="Capa_2" xmlns="http://www.w3.org/2000/svg" viewBox="0 0 200 201.9"><g id="Capa_1-2"><path d="m140.19,201.9v-59.57c11.14,3.25,21.9,2.92,31.99-3.15,4.74-2.85,8.14-7.11,11.33-12.06-1.68,0-2.97-.02-4.26,0-4.04.06-3.97.04-5.4-3.66-4.74-12.2-9.54-24.39-14.33-36.57-.72-1.83-1.52-3.63-2.32-5.51,1.18-.61,2.39-1.12,3.48-1.82,4.98-3.2,7.88-8.54,5.86-14.45-2.43-7.1-10.31-9.3-15.2-4.19-2.21,2.31-2.89,6.13-1.61,8.96.91,2.03,2.56,3.02,4.62,2.75,1.81-.23,3.21-1.84,3.45-3.97.18-1.66-1-3.43-2.79-4.2-.31-.13-.6-.33-.91-.5,1.86-2.01,4.9-1.87,6.58.23,2.87,3.58,1.48,8.72-2.93,10.93-2.73,1.37-5.65,1.63-8.49.9-2.83-.72-5.53-1.96-8.23-3.11-.46-.2-.85-1.09-.87-1.68-.08-3.25-.04-6.51-.04-9.77,0-13.2,0-26.4,0-39.6,0-.52,0-1.04,0-1.82.62.29,1.05.45,1.45.68,15.14,8.8,30.27,17.61,45.41,26.41,3.65,2.12,7.28,4.29,10.99,6.31,1.5.82,2.04,1.8,2.04,3.53-.07,16.98-.05,33.96-.05,50.95,0,18.04-.01,36.08.03,54.11,0,1.46-.49,2.31-1.72,3.08-7.03,4.37-14,8.82-20.99,13.24-11.42,7.22-22.84,14.43-34.25,21.65-.87.55-1.72,1.15-2.82,1.88Z"/><path d="m15.52,127.1c4.6,7.89,11.01,13.26,19.65,15.75,8.5,2.45,16.94,1.96,25.37-1.25v60.03c-.74-.4-1.39-.7-1.99-1.07-15.41-9.63-30.81-19.28-46.22-28.91-3.66-2.28-7.32-4.55-11.04-6.74-1.11-.65-1.28-1.51-1.28-2.64.02-20.63.02-41.27.02-61.9,0-14.69,0-29.39-.04-44.08,0-1.22.39-1.88,1.46-2.49,9.5-5.37,18.96-10.8,28.43-16.21,7.1-4.06,14.21-8.11,21.31-12.18,2.67-1.53,5.32-3.1,7.98-4.64.36-.21.75-.37,1.35-.66.05.7.1,1.15.1,1.61,0,15.84-.01,31.68.02,47.51,0,1.34-.43,2.2-1.59,2.9-3.66,2.2-7.47,3.91-11.82,4.18-2.82.18-5.45-.37-7.72-2.11-3.38-2.59-3.97-7-1.4-9.98,1.51-1.75,3.39-2.15,5.45-1.1.36.18.61.56.91.85-.31.26-.58.6-.94.78-3.01,1.45-3.37,5.2-.66,7.07,1.5,1.04,3.61.87,4.99-.4,1.97-1.81,2.35-4.71,1.05-7.84-2.57-6.16-10.08-7.37-14.43-2.3-5.31,6.19-2.93,13.65,1.95,17.32,1.18.89,2.52,1.62,3.88,2.22.96.42,1.13.82.75,1.78-3.8,9.46-7.57,18.93-11.32,28.4-1.96,4.94-3.91,9.89-5.79,14.86-.39,1.04-.94,1.29-1.96,1.26-2.05-.07-4.11-.02-6.49-.02Z"/><path d="m122.78,127.08c.26.56.34.96.58,1.24,2.08,2.49,4.21,4.94,6.27,7.45.4.49.8,1.17.8,1.77.04,14.25.02,28.5.02,42.75,0,1.74,0,1.68-1.72,1.68-8.19-.01-16.38,0-24.56.05-1.19,0-1.59-.27-1.59-1.53.04-40.56.04-81.11,0-121.67,0-1.21.4-1.47,1.45-1.25,3.52.76,6.74,2.23,9.85,4,5.68,3.24,10.78,7.29,15.83,11.4.4.33.71,1.03.71,1.55.03,17.07.01,34.13.04,51.2,0,1.12-.35,1.42-1.45,1.37-2-.09-4.01-.03-6.24-.03Z"/><path d="m75.93,127.11c-1.81,0-3.29-.05-4.77.02-1.04.05-1.37-.3-1.36-1.36.03-17.33.02-34.66,0-51.99,0-1.01.34-1.7,1.15-2.34,5.38-4.2,10.74-8.43,16.93-11.41,2.12-1.02,4.42-1.67,6.65-2.44,1.05-.36,1.51.02,1.47,1.22-.09,2.42-.03,4.84-.04,7.26,0,37.43-.02,74.86-.02,112.3,0,.7-.02,1.41.07,2.11.14,1.16-.3,1.54-1.47,1.52-5.55-.09-11.1-.13-16.64-.14-2.16,0-4.31.04-6.47.17-1.27.08-1.65-.32-1.65-1.61.05-12.58.04-25.16.04-37.74,0-2.07-.1-4.14,0-6.2.04-.75.41-1.58.87-2.18,1.24-1.59,2.67-3.04,3.93-4.62.52-.65.77-1.51,1.29-2.56Z"/><path d="m130.38.09v64.3c-1.26-1-2.33-1.81-3.35-2.67-4.1-3.42-8.34-6.67-13.23-8.86-3.11-1.39-6.41-2.37-9.67-3.39-1.07-.34-1.67-.64-1.58-1.9.09-1.22-.05-2.46-.13-3.69-.06-.85.16-1.36,1.11-1.62,7.29-2,12.13-8.74,11.77-16.32-.34-7.05-6.11-13.36-13.41-14.66-6.08-1.08-12.54,1.94-16.14,7.56-3.24,5.04-3.25,11.68.08,16.43,2.27,3.25,5.23,5.7,9.05,6.97.9.3,1.24.77,1.19,1.73-.07,1.36-.01,2.73.07,4.09.05.84-.17,1.27-1.07,1.45-6,1.17-11.49,3.58-16.46,7.11-2.47,1.76-4.81,3.7-7.22,5.55-.4.3-.84.54-1.48.95-.03-.69-.07-1.11-.07-1.52,0-19.97,0-39.95-.02-59.92,0-1.24.33-1.68,1.63-1.68,19.21.04,38.41.02,57.62.03.43,0,.86.04,1.34.06Z"/><path d="m30.65,126.76c4.99-12.65,9.93-25.19,14.87-37.72.14,0,.28-.02.42-.03,4.95,12.54,9.91,25.08,14.91,37.75h-30.2Z"/><path d="m167.99,126.77h-27.8c-.16-2.9-.11-5.65.99-8.42,3.8-9.5,7.42-19.07,11.12-28.61.17-.44.39-.86.66-1.43,5.04,12.89,10,25.6,15.03,38.46Z"/><path d="m109.82,27.03c.02,5.73-4.73,10.43-10.54,10.42-5.59-.01-10.4-4.78-10.42-10.32-.02-5.7,4.82-10.68,10.39-10.69,5.84,0,10.55,4.71,10.57,10.58Z"/><path d="m50.17,81.98c.91-.19,1.73-.31,2.5-.55,2.13-.66,4.27-1.3,6.37-2.08,1.5-.55,1.6-.55,1.6,1.12,0,7.03.01,14.06.02,21.1,0,1.84,0,3.67,0,5.77-.33-.41-.65-.67-.78-1-2.51-6.42-4.99-12.85-7.51-19.26-.64-1.63-1.38-3.21-2.2-5.09Z"/><path d="m140.21,101.91v-22.17c2.73.8,5.36,1.58,8.08,2.38-2.57,6.63-5.14,13.26-7.71,19.89-.12-.03-.24-.07-.36-.1Z"/></g></svg>