<?xml version="1.0" encoding="UTF-8"?><svg xmlns="http://www.w3.org/2000/svg" xmlns:xlink="http://www.w3.org/1999/xlink" viewBox="0 0 377 377"><defs><style>.cls-1{fill:#f4904d;}.cls-2,.cls-3{fill:#fff;}.cls-4{stroke:#0b0f13;stroke-width:.25px;}.cls-4,.cls-5,.cls-6,.cls-3,.cls-7,.cls-8{stroke-miterlimit:10;}.cls-4,.cls-5,.cls-6,.cls-9,.cls-7,.cls-8{fill:none;}.cls-10{isolation:isolate;}.cls-11{fill:#ffa15a;}.cls-12{fill:#d5d1c6;mix-blend-mode:multiply;opacity:.53;}.cls-13{fill:#0b0f13;}.cls-14{fill:#f4ec62;}.cls-5{stroke-width:2px;}.cls-5,.cls-6{stroke:#fff;}.cls-15{fill:#17345c;}.cls-16{fill:#511310;}.cls-6,.cls-3,.cls-8{stroke-width:.5px;}.cls-17{fill:#ff4343;}.cls-18{clip-path:url(#clippath);}.cls-19{fill:#fffb7b;}.cls-20{fill:#5c809c;}.cls-3,.cls-7{stroke:#c7cbd3;}.cls-21{fill:#102b4c;}.cls-22{fill:#c7cbd3;}.cls-23{fill:#fbb03b;}.cls-24{fill:#fffefe;}.cls-25{fill:#f2f2f2;}.cls-8{stroke:#000;}</style><clipPath id="clippath"><circle class="cls-9" cx="188.5" cy="188.5" r="188.5"/></clipPath></defs><g class="cls-10"><g id="Capa_2"><g id="OBJECTS"><g class="cls-18"><path class="cls-22" d="m-38.79,414s-22.06-104.5,72.38-137.83c89.73-31.67,91.05-52.78,113.49-113.49,22.43-60.7,64.66-83.14,130.64-72.58,65.98,10.56,95.01-27.71,95.01-59.38s23.99-58.65,60.16-48.46v431.15l-471.68.6Z"/><path class="cls-2" d="m268.47,321.79c0,.89-.72,1.62-1.62,1.62s-1.62-.72-1.62-1.62.72-1.62,1.62-1.62,1.62.72,1.62,1.62Z"/><path class="cls-2" d="m276.01,321.79c0,.89-.72,1.62-1.62,1.62s-1.62-.72-1.62-1.62.72-1.62,1.62-1.62,1.62.72,1.62,1.62Z"/><path class="cls-2" d="m283.55,321.79c0,.89-.72,1.62-1.62,1.62s-1.62-.72-1.62-1.62.72-1.62,1.62-1.62,1.62.72,1.62,1.62Z"/><path class="cls-2" d="m291.09,321.79c0,.89-.72,1.62-1.62,1.62s-1.62-.72-1.62-1.62.72-1.62,1.62-1.62,1.62.72,1.62,1.62Z"/><path class="cls-2" d="m268.47,327.18c0,.89-.72,1.62-1.62,1.62s-1.62-.72-1.62-1.62.72-1.62,1.62-1.62,1.62.72,1.62,1.62Z"/><path class="cls-2" d="m276.01,327.18c0,.89-.72,1.62-1.62,1.62s-1.62-.72-1.62-1.62.72-1.62,1.62-1.62,1.62.72,1.62,1.62Z"/><path class="cls-2" d="m283.55,327.18c0,.89-.72,1.62-1.62,1.62s-1.62-.72-1.62-1.62.72-1.62,1.62-1.62,1.62.72,1.62,1.62Z"/><path class="cls-2" d="m291.09,327.18c0,.89-.72,1.62-1.62,1.62s-1.62-.72-1.62-1.62.72-1.62,1.62-1.62,1.62.72,1.62,1.62Z"/><path class="cls-2" d="m268.47,332.56c0,.89-.72,1.62-1.62,1.62s-1.62-.72-1.62-1.62.72-1.62,1.62-1.62,1.62.72,1.62,1.62Z"/><path class="cls-2" d="m276.01,332.56c0,.89-.72,1.62-1.62,1.62s-1.62-.72-1.62-1.62.72-1.62,1.62-1.62,1.62.72,1.62,1.62Z"/><path class="cls-2" d="m283.55,332.56c0,.89-.72,1.62-1.62,1.62s-1.62-.72-1.62-1.62.72-1.62,1.62-1.62,1.62.72,1.62,1.62Z"/><path class="cls-2" d="m291.09,332.56c0,.89-.72,1.62-1.62,1.62s-1.62-.72-1.62-1.62.72-1.62,1.62-1.62,1.62.72,1.62,1.62Z"/><path class="cls-2" d="m268.47,337.95c0,.89-.72,1.62-1.62,1.62s-1.62-.72-1.62-1.62.72-1.62,1.62-1.62,1.62.72,1.62,1.62Z"/><path class="cls-2" d="m276.01,337.95c0,.89-.72,1.62-1.62,1.62s-1.62-.72-1.62-1.62.72-1.62,1.62-1.62,1.62.72,1.62,1.62Z"/><path class="cls-2" d="m283.55,337.95c0,.89-.72,1.62-1.62,1.62s-1.62-.72-1.62-1.62.72-1.62,1.62-1.62,1.62.72,1.62,1.62Z"/><path class="cls-2" d="m291.09,337.95c0,.89-.72,1.62-1.62,1.62s-1.62-.72-1.62-1.62.72-1.62,1.62-1.62,1.62.72,1.62,1.62Z"/><path class="cls-2" d="m298.47,321.79c0,.89-.72,1.62-1.62,1.62s-1.62-.72-1.62-1.62.72-1.62,1.62-1.62,1.62.72,1.62,1.62Z"/><path class="cls-2" d="m306.01,321.79c0,.89-.72,1.62-1.62,1.62s-1.62-.72-1.62-1.62.72-1.62,1.62-1.62,1.62.72,1.62,1.62Z"/><path class="cls-2" d="m313.55,321.79c0,.89-.72,1.62-1.62,1.62s-1.62-.72-1.62-1.62.72-1.62,1.62-1.62,1.62.72,1.62,1.62Z"/><path class="cls-2" d="m321.09,321.79c0,.89-.72,1.62-1.62,1.62s-1.62-.72-1.62-1.62.72-1.62,1.62-1.62,1.62.72,1.62,1.62Z"/><path class="cls-2" d="m298.47,327.18c0,.89-.72,1.62-1.62,1.62s-1.62-.72-1.62-1.62.72-1.62,1.62-1.62,1.62.72,1.62,1.62Z"/><path class="cls-2" d="m306.01,327.18c0,.89-.72,1.62-1.62,1.62s-1.62-.72-1.62-1.62.72-1.62,1.62-1.62,1.62.72,1.62,1.62Z"/><path class="cls-2" d="m313.55,327.18c0,.89-.72,1.62-1.62,1.62s-1.62-.72-1.62-1.62.72-1.62,1.62-1.62,1.62.72,1.62,1.62Z"/><path class="cls-2" d="m321.09,327.18c0,.89-.72,1.62-1.62,1.62s-1.62-.72-1.62-1.62.72-1.62,1.62-1.62,1.62.72,1.62,1.62Z"/><path class="cls-2" d="m298.47,332.56c0,.89-.72,1.62-1.62,1.62s-1.62-.72-1.62-1.62.72-1.62,1.62-1.62,1.62.72,1.62,1.62Z"/><path class="cls-2" d="m306.01,332.56c0,.89-.72,1.62-1.62,1.62s-1.62-.72-1.62-1.62.72-1.62,1.62-1.62,1.62.72,1.62,1.62Z"/><path class="cls-2" d="m313.55,332.56c0,.89-.72,1.62-1.62,1.62s-1.62-.72-1.62-1.62.72-1.62,1.62-1.62,1.62.72,1.62,1.62Z"/><path class="cls-2" d="m321.09,332.56c0,.89-.72,1.62-1.62,1.62s-1.62-.72-1.62-1.62.72-1.62,1.62-1.62,1.62.72,1.62,1.62Z"/><path class="cls-2" d="m298.47,337.95c0,.89-.72,1.62-1.62,1.62s-1.62-.72-1.62-1.62.72-1.62,1.62-1.62,1.62.72,1.62,1.62Z"/><path class="cls-2" d="m306.01,337.95c0,.89-.72,1.62-1.62,1.62s-1.62-.72-1.62-1.62.72-1.62,1.62-1.62,1.62.72,1.62,1.62Z"/><path class="cls-2" d="m313.55,337.95c0,.89-.72,1.62-1.62,1.62s-1.62-.72-1.62-1.62.72-1.62,1.62-1.62,1.62.72,1.62,1.62Z"/><path class="cls-2" d="m321.09,337.95c0,.89-.72,1.62-1.62,1.62s-1.62-.72-1.62-1.62.72-1.62,1.62-1.62,1.62.72,1.62,1.62Z"/><path class="cls-2" d="m328.47,321.79c0,.89-.72,1.62-1.62,1.62s-1.62-.72-1.62-1.62.72-1.62,1.62-1.62,1.62.72,1.62,1.62Z"/><path class="cls-2" d="m336.01,321.79c0,.89-.72,1.62-1.62,1.62s-1.62-.72-1.62-1.62.72-1.62,1.62-1.62,1.62.72,1.62,1.62Z"/><path class="cls-2" d="m343.55,321.79c0,.89-.72,1.62-1.62,1.62s-1.62-.72-1.62-1.62.72-1.62,1.62-1.62,1.62.72,1.62,1.62Z"/><path class="cls-2" d="m351.09,321.79c0,.89-.72,1.62-1.62,1.62s-1.62-.72-1.62-1.62.72-1.62,1.62-1.62,1.62.72,1.62,1.62Z"/><path class="cls-2" d="m328.47,327.18c0,.89-.72,1.62-1.62,1.62s-1.62-.72-1.62-1.62.72-1.62,1.62-1.62,1.62.72,1.62,1.62Z"/><path class="cls-2" d="m336.01,327.18c0,.89-.72,1.62-1.62,1.62s-1.62-.72-1.62-1.62.72-1.62,1.62-1.62,1.62.72,1.62,1.62Z"/><path class="cls-2" d="m343.55,327.18c0,.89-.72,1.62-1.62,1.62s-1.62-.72-1.62-1.62.72-1.62,1.62-1.62,1.62.72,1.62,1.62Z"/><path class="cls-2" d="m351.09,327.18c0,.89-.72,1.62-1.62,1.62s-1.62-.72-1.62-1.62.72-1.62,1.62-1.62,1.62.72,1.62,1.62Z"/><path class="cls-2" d="m328.47,332.56c0,.89-.72,1.62-1.62,1.62s-1.62-.72-1.62-1.62.72-1.62,1.62-1.62,1.62.72,1.62,1.62Z"/><path class="cls-2" d="m336.01,332.56c0,.89-.72,1.62-1.62,1.62s-1.62-.72-1.62-1.62.72-1.62,1.62-1.62,1.62.72,1.62,1.62Z"/><path class="cls-2" d="m343.55,332.56c0,.89-.72,1.62-1.62,1.62s-1.62-.72-1.62-1.62.72-1.62,1.62-1.62,1.62.72,1.62,1.62Z"/><path class="cls-2" d="m351.09,332.56c0,.89-.72,1.62-1.62,1.62s-1.62-.72-1.62-1.62.72-1.62,1.62-1.62,1.62.72,1.62,1.62Z"/><path class="cls-2" d="m328.47,337.95c0,.89-.72,1.62-1.62,1.62s-1.62-.72-1.62-1.62.72-1.62,1.62-1.62,1.62.72,1.62,1.62Z"/><path class="cls-2" d="m336.01,337.95c0,.89-.72,1.62-1.62,1.62s-1.62-.72-1.62-1.62.72-1.62,1.62-1.62,1.62.72,1.62,1.62Z"/><path class="cls-2" d="m343.55,337.95c0,.89-.72,1.62-1.62,1.62s-1.62-.72-1.62-1.62.72-1.62,1.62-1.62,1.62.72,1.62,1.62Z"/><path class="cls-2" d="m351.09,337.95c0,.89-.72,1.62-1.62,1.62s-1.62-.72-1.62-1.62.72-1.62,1.62-1.62,1.62.72,1.62,1.62Z"/><path class="cls-2" d="m358.47,321.79c0,.89-.72,1.62-1.62,1.62s-1.62-.72-1.62-1.62.72-1.62,1.62-1.62,1.62.72,1.62,1.62Z"/><path class="cls-2" d="m366.01,321.79c0,.89-.72,1.62-1.62,1.62s-1.62-.72-1.62-1.62.72-1.62,1.62-1.62,1.62.72,1.62,1.62Z"/><path class="cls-2" d="m373.55,321.79c0,.89-.72,1.62-1.62,1.62s-1.62-.72-1.62-1.62.72-1.62,1.62-1.62,1.62.72,1.62,1.62Z"/><path class="cls-2" d="m358.47,327.18c0,.89-.72,1.62-1.62,1.62s-1.62-.72-1.62-1.62.72-1.62,1.62-1.62,1.62.72,1.62,1.62Z"/><path class="cls-2" d="m366.01,327.18c0,.89-.72,1.62-1.62,1.62s-1.62-.72-1.62-1.62.72-1.62,1.62-1.62,1.62.72,1.62,1.62Z"/><path class="cls-2" d="m373.55,327.18c0,.89-.72,1.62-1.62,1.62s-1.62-.72-1.62-1.62.72-1.62,1.62-1.62,1.62.72,1.62,1.62Z"/><path class="cls-2" d="m358.47,332.56c0,.89-.72,1.62-1.62,1.62s-1.62-.72-1.62-1.62.72-1.62,1.62-1.62,1.62.72,1.62,1.62Z"/><path class="cls-2" d="m366.01,332.56c0,.89-.72,1.62-1.62,1.62s-1.62-.72-1.62-1.62.72-1.62,1.62-1.62,1.62.72,1.62,1.62Z"/><path class="cls-2" d="m373.55,332.56c0,.89-.72,1.62-1.62,1.62s-1.62-.72-1.62-1.62.72-1.62,1.62-1.62,1.62.72,1.62,1.62Z"/><path class="cls-2" d="m358.47,337.95c0,.89-.72,1.62-1.62,1.62s-1.62-.72-1.62-1.62.72-1.62,1.62-1.62,1.62.72,1.62,1.62Z"/><path class="cls-2" d="m366.01,337.95c0,.89-.72,1.62-1.62,1.62s-1.62-.72-1.62-1.62.72-1.62,1.62-1.62,1.62.72,1.62,1.62Z"/><path class="cls-2" d="m373.55,337.95c0,.89-.72,1.62-1.62,1.62s-1.62-.72-1.62-1.62.72-1.62,1.62-1.62,1.62.72,1.62,1.62Z"/><rect class="cls-3" x="31.5" y="93" width="36" height="50"/><rect class="cls-22" x="34.5" y="99" width="30" height="2"/><rect class="cls-22" x="34.5" y="105" width="30" height="2"/><rect class="cls-22" x="34.5" y="111" width="30" height="2"/><rect class="cls-22" x="34.5" y="117" width="30" height="2"/><rect class="cls-22" x="34.5" y="123" width="30" height="2"/><rect class="cls-22" x="34.5" y="129" width="30" height="2"/><rect class="cls-22" x="34.5" y="135" width="19" height="2"/><rect class="cls-3" x="92.5" y="81" width="13" height="13"/><polyline class="cls-7" points="94.5 88.45 97.05 91 103 85.05"/><rect class="cls-3" x="136.5" y="81" width="13" height="13"/><line class="cls-7" x1="147" y1="83.5" x2="139.5" y2="91"/><line class="cls-7" x1="139.5" y1="83.5" x2="147" y2="91"/><path class="cls-6" d="m338.68,218.16s-7.11-3.3-5.48-15.75c.05-.38.58-.44.71-.08.56,1.58,1.58,3.8,2.84,3.44,1.93-.55,1.38-5.78.28-7.98-1.1-2.2-3.03-9.91.28-13.76,3.3-3.85,1.93,6.88,4.95,5.78,3.03-1.1.83-6.6,1.65-10.73.83-4.13,7.7-9.63,11.01-5.78,3.3,3.85,3.85,11.56.55,14.58-3.3,3.03-4.68,7.43-3.3,9.36s5.5-2.48,6.88-.28c1.38,2.2-3.03,7.43-8.26,8.81-5.23,1.38.83,4.68,5.5,2.75,4.68-1.93-1.65,15.41-17.61,9.63Z"/><path class="cls-6" d="m353.07,172s-20.2,49.63-17.56,87.62"/><path class="cls-6" d="m350.82,233.12s-4.21-5.66,2.42-14.81c.2-.28.65-.1.6.25-.24,1.49-.38,3.68.77,3.94,1.76.39,3.57-3.98,3.64-6.2s1.85-9.14,6.12-10.77c4.27-1.63-1.43,6.27,1.44,6.7,2.87.43,3.49-4.87,5.91-7.78s10.23-4.31,11.19.15c.96,4.46-1.91,10.8-5.82,11.77-3.91.98-6.89,3.87-6.63,5.99.26,2.11,5.42.4,5.56,2.73.14,2.33-5.58,4.58-10.31,3.43-4.73-1.15-1.35,4.06,3.17,4.54,4.53.48-7.92,11.48-18.07.06Z"/><path class="cls-6" d="m382.01,202.78s-36.98,31.15-46.48,56.99"/><path class="cls-6" d="m336.45,289.71h0c-7.17,0-12.98-5.81-12.98-12.98v-17.11h25.95v17.11c0,7.17-5.81,12.98-12.98,12.98Z"/><rect class="cls-6" x="319" y="126.5" width="85" height="8"/><rect class="cls-6" x="326" y="96.5" width="7" height="30"/><rect class="cls-6" x="333" y="92.5" width="9" height="34"/><rect class="cls-6" x="355" y="96.5" width="7" height="30"/><rect class="cls-6" x="345.8" y="98.64" width="6.49" height="27.8" transform="translate(26.19 -61.43) rotate(10.45)"/><rect class="cls-6" x="362" y="92.5" width="9" height="34"/><rect class="cls-2" x="328.5" y="100" width="2" height="17"/><rect class="cls-2" x="336.5" y="100" width="2" height="17"/><rect class="cls-2" x="357.5" y="100" width="2" height="17"/><rect class="cls-2" x="348.87" y="103.02" width="1.82" height="12.93" transform="translate(25.65 -61.61) rotate(10.45)"/><rect class="cls-2" x="365.5" y="100" width="2" height="17"/><line class="cls-6" x1="319" y1="129.16" x2="367.5" y2="129.16"/><rect class="cls-6" x="300.91" y="145" width="19.42" height="9.5"/><rect class="cls-6" x="322.7" y="145" width="19.42" height="9.5"/><rect class="cls-6" x="309.32" y="156.65" width="19.42" height="9.5"/><rect class="cls-6" x="349.91" y="49" width="19.42" height="9.5"/><rect class="cls-6" x="371.7" y="49" width="19.42" height="9.5"/><rect class="cls-6" x="358.32" y="60.65" width="19.42" height="9.5"/><line class="cls-6" x1="375.5" y1="278.39" x2="349.91" y2="278.39"/><line class="cls-6" x1="316.5" y1="278.39" x2="40.5" y2="278.39"/><ellipse class="cls-12" cx="186.5" cy="301.01" rx="152.72" ry="7.49"/><path class="cls-11" d="m253.09,177.42l-24.97,33.29s-9.99,0-11.65,4.16h14.98l24.97-23.3-.29-7.49-3.04-6.66Z"/><circle class="cls-15" cx="264.32" cy="146.2" r="18.73"/><circle class="cls-15" cx="280.13" cy="168.68" r="18.73"/><path class="cls-21" d="m257.9,237.6v-37.07c0-12.62,10.23-22.86,22.86-22.86h15.74c12.62,0,22.86,10.23,22.86,22.86v50.89l-61.46-13.83Z"/><rect class="cls-15" x="243.66" y="256.02" width="2.27" height="42.55"/><rect class="cls-21" x="315.69" y="256.02" width="2.27" height="42.55"/><rect class="cls-21" x="301.51" y="256.02" width="2.27" height="42.55"/><rect class="cls-15" x="257.84" y="256.02" width="2.27" height="42.55"/><rect class="cls-15" x="243.09" y="251.48" width="76.58" height="4.54"/><path class="cls-15" d="m319.67,251.48h-76.58c0-7.52,6.09-13.61,13.61-13.61h49.35c7.52,0,13.61,6.09,13.61,13.61h0Z"/><path class="cls-13" d="m249.54,280.76s-1.42-.05-2.59,1.12-1.16,3.49-1.16,3.49v1.16h4.36s1.45,0,1.45-1.16v-2.33l-.75-1.74s-1.06-.49-1.32-.54Z"/><path class="cls-13" d="m229.5,228.38s-4.65,2.33-3.49,9.3c1.16,6.98,13.96,37.22,13.96,37.22,0,0,3.49,6.98,0,13.96-3.49,6.98-5.81,9.3-5.81,9.3,0,0,8.14,2.33,11.63-4.65,3.49-6.98,5.81-3.49,3.49-13.96-2.33-10.47-1.16-26.75-1.16-30.24s-6.98-17.44-18.61-20.93Z"/><path class="cls-13" d="m261.17,280.76s-1.42-.05-2.59,1.12c-1.16,1.16-1.16,3.49-1.16,3.49v1.16h4.36s1.45,0,1.45-1.16v-2.33l-.75-1.74s-1.06-.49-1.32-.54Z"/><path class="cls-13" d="m241.13,228.38s-4.65,2.33-3.49,9.3c1.16,6.98,13.96,37.22,13.96,37.22,0,0,3.49,6.98,0,13.96-3.49,6.98-5.81,9.3-5.81,9.3,0,0,8.14,2.33,11.63-4.65,3.49-6.98,5.81-3.49,3.49-13.96-2.33-10.47-1.16-26.75-1.16-30.24s-6.98-17.44-18.61-20.93Z"/><path d="m259.44,251.42s.58-13.29,12.2-13.56c11.62-.27,16.99,0,16.99,0,0,0,6.91-3.34,1.54-16.4h-37.64s-26.49.77-26.69,13.83c0,0,.18,4.61,3.83,13.83,0,0,21.32-3.07,29.77,2.3Z"/><path class="cls-2" d="m254.06,221.46s13.83-.77,19.21,6.91c5.38,7.68,18.93,3.97,18.93,3.97,0,0,3.34-54.67-12.79-66.97-11.06-8.43-23.4-5.18-28.43,15.37-.45,1.85,0,8.45,3.07,13.06,3.01,4.52,1.53,11.91,1.54,18.44,0,2.17-.12,2.25-.14,2.82-.09,2.06-.47,4.09-1.24,6l-.16.4Z"/><path d="m260.97,279.85s3.84,1.54,3.84,4.61-9.22,16.13-14.6,16.13-4.61-3.84-4.61-3.84l4.61-6.15s3.84.77,6.15-1.54,4.61-9.22,4.61-9.22Z"/><path d="m248.68,279.85s3.84,1.54,3.84,4.61-9.22,16.13-14.6,16.13-4.61-3.84-4.61-3.84l4.61-6.15s3.84.77,6.15-1.54,4.61-9.22,4.61-9.22Z"/><path class="cls-1" d="m273.4,162.43s-2.5,5.83-10.82,7.49c-8.32,1.66-2.84-5.57-2.84-5.57l-.49-6.91s-5.83,2.5-8.32-2.5c-2.5-4.99-.83-19.14,3.33-21.64,4.16-2.5,10.82-1.66,14.15,3.33s0,17.48,0,17.48l1.66,7.49s1.66,0,3.33.83Z"/><path class="cls-15" d="m253.5,137.05s1.66,5.83,8.32,7.49c6.66,1.66,0,6.66,0,6.66,0,0,4.16,10.82,11.65,11.65s11.6,9.86,11.6,9.86c0,0,1.71-15.69-5.78-23.18-7.49-7.49-4.16-14.98-13.32-19.14-9.16-4.16-14.98,3.33-12.48,6.66Z"/><polyline class="cls-4" points="252.25 141.63 251.42 146.62 253.92 146.62"/><circle class="cls-2" cx="261.82" cy="150.37" r="2.08"/><path class="cls-16" d="m254.75,151.2c0,1.15-.56,2.08-1.25,2.08s-1.25-.93-1.25-2.08.56-2.08,1.25-2.08,1.25.93,1.25,2.08Z"/><path class="cls-13" d="m253.92,143.29c0,.46-.19.83-.42.83s-.42-.37-.42-.83.19-.83.42-.83.42.37.42.83Z"/><path class="cls-13" d="m251.42,143.29c0,.46-.19.83-.42.83s-.42-.37-.42-.83.19-.83.42-.83.42.37.42.83Z"/><path class="cls-11" d="m282.92,181.75s-.83,24.97-8.32,29.13c-7.49,4.16-36.02,1.66-36.02,1.66,0,0,1.06-1.66,3.56-2.5,2.5-.83,6.66-1.66,10.82-1.66s13.32-2.5,14.15-4.99c.83-2.5.83-21.64.83-21.64l1.73-.38c3.8-.84,7.73-.84,11.53,0l1.73.38Z"/><path class="cls-4" d="m257.9,168.35s.18,3.21,6.42,1.14c6.24-2.07,8.23-5.64,8.23-5.64"/><path class="cls-21" d="m149.05,238.27v-37.07c0-12.62-10.23-22.86-22.86-22.86h-15.74c-12.62,0-22.86,10.23-22.86,22.86v50.89l61.46-13.83Z"/><rect class="cls-15" x="161.03" y="256.69" width="2.27" height="42.55" transform="translate(324.33 555.94) rotate(180)"/><rect class="cls-21" x="88.99" y="256.69" width="2.27" height="42.55" transform="translate(180.25 555.94) rotate(180)"/><rect class="cls-21" x="99.84" y="256.69" width="2.27" height="42.55" transform="translate(201.95 555.94) rotate(180)"/><rect class="cls-15" x="146.85" y="256.69" width="2.27" height="42.55" transform="translate(295.96 555.94) rotate(180)"/><rect class="cls-15" x="87.29" y="252.16" width="76.58" height="4.54" transform="translate(251.15 508.86) rotate(180)"/><path class="cls-15" d="m87.29,252.16h76.58c0-7.52-6.09-13.61-13.61-13.61h-49.35c-17.15,0-13.61,6.1-13.61,13.61h0Z"/><path class="cls-11" d="m147.38,175.75l24.97,33.29s9.99,0,11.65,4.16h-14.98l-24.97-23.3.29-7.49,3.04-6.66Z"/><path class="cls-20" d="m142.39,183.24l9.99-1.66s-8.32-16.65-18.31-18.31c-9.99-1.66,8.32,19.97,8.32,19.97Z"/><polygon class="cls-2" points="166.48 288.62 168.98 293.73 173.06 292.78 175.16 289.64 173.07 285.39 166.48 288.62"/><path d="m169.59,296.41c.29.08.6.07.88-.02,2.48-.82,13.97-4.58,16.12-6.65,2.39-2.31-6.02-.86-6.02-.86l-3.77-.84c-.75-.17-1.53.13-1.97.76-1.24,1.77-3.84,5.12-5.47,4.68-1.59-.43-1.22,1.11-.77,2.09.19.41.55.71.99.83h0Z"/><polygon class="cls-2" points="121.12 292.27 121.12 298.14 125.33 299.11 128.7 297.16 128.7 292.27 121.12 292.27"/><path d="m151.87,231.19c-7.49,9.56-4.62,24.85-2.61,27.7,1.83,2.6,13.06,22.45,17.73,31.82,2.4-.92,2.09-.97,4.53-1.76.04-.01,2.82-.83,2.87-.85-.97-2.16-1.23-3.84-1.23-3.84,0,0-9.38-38.04-12.46-44.41-3.07-6.37-8.83-8.65-8.83-8.65Z"/><path d="m118.32,252.48s-.74-11.06-6.23-13.93c-5.49-2.87-3.83-14.52-3.83-14.52l37.45-2.5s6.66,8.32,11.65,13.32c4.51,4.51-9.99,17.48-9.99,17.48,0,0-10.82-12.48-13.32-14.98-8.83-8.83-6.75,5.83-6.75,5.83l-8.99,9.31Z"/><path class="cls-13" d="m120.46,300.9c.23.21.52.34.83.38,2.67.37,15.03,2.12,17.96,1.18,3.27-1.05-5.19-3.53-5.19-3.53l-3.11-2.49c-.62-.5-1.48-.58-2.17-.19-1.95,1.07-5.89,3-7.2,1.85-1.28-1.12-1.64.47-1.66,1.59,0,.47.19.91.54,1.22h0Z"/><path class="cls-13" d="m130.74,228.18c-10.79,5.56-13.08,23.15-12.44,26.58.58,3.12,2.39,28.14,2.73,38.6,2.56.17,5.12.4,7.67.7.05,0,.1.01.14.02.02-2.37.48-4.01.48-4.01,7.23-46.91,9.17-46.8,8.56-50.8-1.06-6.99-7.15-11.1-7.15-11.1Z"/><path class="cls-13" d="m132.4,230.68l-5.49-6.66h-18.64s-1.5,8.84,2.16,13.16c3.66,4.32,6.16.99,7.8,15.73l7.85-8.28,6.32-13.95Z"/><path class="cls-20" d="m149.05,225.69s-15.61-2.71-20.98,4.97c-4.06,5.79-15.1,6.34-20.29,6.26-1.53-.02-2.74-1.3-2.68-2.83.39-11.44,2.81-55.76,16.83-66.44,11.06-8.43,17.11-9.13,22.14,11.42.45,1.85.11,4.63.83,16.65.32,5.42.86,12.27.85,18.8,0,2.17.12,2.25.14,2.82.09,2.06.74,3.93,1.51,5.84l1.66,2.5Z"/><path class="cls-1" d="m127.86,164.45c-1.67.1-2.49,2.11-1.38,3.36,1.59,1.79,4.43,4.02,9.08,4.95,8.32,1.66,2.84-5.57,2.84-5.57l.26-3.62c.11-1.55,1.43-2.77,2.97-2.68,1.86.11,4.22-.38,5.58-3.11,2.5-4.99.83-19.14-3.33-21.64-4.16-2.5-10.82-1.66-14.15,3.33-3.33,4.99,0,17.48,0,17.48l-1.66,7.49s-.08,0-.22,0Z"/><path d="m134.07,148.29s-2.04,14.47,6.66,16.65c9.99,2.5,7.67-13.85,7.67-13.85,0,0-8.5,3.03-12.66-2.79h-1.66Z"/><path d="m135.73,148.29s-.83-6.66.83-7.49c1.66-.83,8.51,1.29,10.08-.6,1.57-1.9,4.07-9.39-2.59-12.72-6.66-3.33-10.82,4.16-10.82,4.16,0,0-8.32,2.5-8.32,6.66s2.5,6.66,2.5,6.66c0,0,.19,8.56,2.18,11.35l1.15,1.13.83-6.66s-1.66-3.33-.83-4.99c.83-1.66,3.33,0,3.33,2.5s1.66,0,1.66,0Z"/><path class="cls-4" d="m144.92,146.76l.61,3.42c.04.24-.12.47-.36.51l-1.49.27"/><path d="m143.22,147.87c0,.69-.37,1.25-.83,1.25s-.83-.56-.83-1.25.37-1.25.83-1.25.83.56.83,1.25Z"/><path d="m147.38,147.87c0,.69-.37,1.25-.83,1.25s-.83-.56-.83-1.25.37-1.25.83-1.25.83.56.83,1.25Z"/><path d="m143.22,144.12s-2.5-.83-3.33,0c-.83.83,4.16,1.66,3.33,0"/><path d="m144.87,144.57s2.42,1.04,3.32.28c.9-.76-4.01-2.01-3.32-.28"/><ellipse class="cls-16" cx="144.47" cy="155.78" rx="1.25" ry="1.66"/><path class="cls-11" d="m115.68,182.47s.83,24.97,8.32,29.13c7.49,4.16,36.02,1.66,36.02,1.66,0,0-1.06-1.66-3.56-2.5-2.5-.83-6.66-1.66-10.82-1.66s-13.32-2.5-14.15-4.99c-.83-2.5-.83-21.64-.83-21.64l-1.73-.38c-3.8-.84-7.73-.84-11.53,0l-1.73.38Z"/><path class="cls-8" d="m123.21,236.93s5.58,5.9,4.89,15.22c-.69,9.32-2.35,35.95-2.35,35.95"/><path class="cls-4" d="m128.63,169.77s6.26,4.32,11.26,2.65"/><path class="cls-25" d="m171.16,169.92h54.39c.97,0,1.81.68,2.01,1.64l8.14,38.91h-58.59l-7.96-38.07c-.27-1.28.71-2.48,2.01-2.48Z"/><path class="cls-24" d="m260.13,210.48h-82.49c-.64,0-1.16.52-1.16,1.16h0c0,.64.52,1.16,1.16,1.16h82.49c.64,0,1.16-.52,1.16-1.16h0c0-.64-.52-1.16-1.16-1.16Z"/><path class="cls-25" d="m260.13,210.48h-23.28c-.64,0-1.16.52-1.16,1.16h0c0,.64.52,1.16,1.16,1.16h23.28c.64,0,1.16-.52,1.16-1.16h0c0-.64-.52-1.16-1.16-1.16Z"/><path class="cls-2" d="m202.24,190.52c.45,2.02-.46,3.94-2.03,4.29-1.57.35-3.21-1-3.66-3.02-.45-2.02.46-3.94,2.03-4.29,1.57-.35,3.21,1,3.66,3.02Z"/><path d="m247.75,207.45h35.91l-.15.26c-.98,1.73-.93,3.86.15,5.54h-35.91c-1.6,0-2.9-1.3-2.9-2.9h0c0-1.6,1.3-2.9,2.9-2.9Z"/><path class="cls-2" d="m255.52,208.08h28.14l-.15.26c-.77,1.34-.71,3,.15,4.29h-28.14c-1.25,0-2.27-1.02-2.27-2.27h0c0-1.26,1.02-2.27,2.27-2.27Z"/><path d="m284.01,208.08h-30.76v-.7h30.76c.19,0,.35.16.35.35h0c0,.19-.16.35-.35.35Z"/><path d="m284.01,213.32h-30.76v-.7h30.76c.19,0,.35.16.35.35h0c0,.19-.16.35-.35.35Z"/><path class="cls-17" d="m242.76,201.62h35.91l-.15.26c-.98,1.73-.93,3.86.15,5.54h-35.91c-1.6,0-2.9-1.3-2.9-2.9h0c0-1.6,1.3-2.9,2.9-2.9Z"/><path class="cls-2" d="m250.52,202.25h28.14l-.15.26c-.77,1.34-.71,3,.15,4.29h-28.14c-1.25,0-2.27-1.02-2.27-2.27h0c0-1.26,1.02-2.27,2.27-2.27Z"/><path class="cls-17" d="m279.02,202.25h-30.76v-.7h30.76c.19,0,.35.16.35.35h0c0,.19-.16.35-.35.35Z"/><path class="cls-17" d="m279.02,207.49h-30.76v-.7h30.76c.19,0,.35.16.35.35h0c0,.19-.16.35-.35.35Z"/><path class="cls-1" d="m96.61,182.41s.83,24.97,8.32,29.13c7.49,4.16,36.02,1.66,36.02,1.66,0,0-1.06-1.66-3.56-2.5-2.5-.83-6.66-1.66-10.82-1.66s-13.32-2.5-14.15-4.99c-.83-2.5-.83-21.64-.83-21.64h-14.98Z"/><circle class="cls-13" cx="94.12" cy="157.44" r="11.65" transform="translate(-80.8 212.66) rotate(-76.65)"/><circle class="cls-13" cx="103.27" cy="167.43" r="11.65"/><path d="m119.92,243.17s-5.62-5.3-21.12-5.3-18.31-.2-17.74-8.27c.57-8.07,28.04-15.56,53.84-1.41l-14.98,14.98Z"/><path class="cls-21" d="m106.99,237.6v-37.07c0-12.62-10.23-22.86-22.86-22.86h-15.74c-12.62,0-22.86,10.23-22.86,22.86v50.89l61.46-13.83Z"/><rect class="cls-15" x="118.96" y="256.02" width="2.27" height="42.55" transform="translate(240.19 554.58) rotate(180)"/><rect class="cls-21" x="46.92" y="256.02" width="2.27" height="42.55" transform="translate(96.12 554.58) rotate(180)"/><rect class="cls-21" x="57.78" y="256.02" width="2.27" height="42.55" transform="translate(117.82 554.58) rotate(180)"/><rect class="cls-15" x="104.78" y="256.02" width="2.27" height="42.55" transform="translate(211.83 554.58) rotate(180)"/><rect class="cls-15" x="45.22" y="251.48" width="76.58" height="4.54" transform="translate(167.02 507.5) rotate(180)"/><path class="cls-15" d="m45.22,251.48h76.58c0-7.52-6.09-13.61-13.61-13.61h-49.35c-17.15,0-13.61,6.09-13.61,13.61h0Z"/><path class="cls-13" d="m115.35,280.76s1.42-.05,2.59,1.12c1.16,1.16,1.16,3.49,1.16,3.49v1.16h-4.36s-1.45,0-1.45-1.16v-2.33l.75-1.74s1.06-.49,1.32-.54Z"/><path d="m134.9,228.18s5.14,2.52,3.97,9.5c-1.16,6.98-13.96,37.22-13.96,37.22,0,0-3.49,6.98,0,13.96,3.49,6.98,5.81,9.3,5.81,9.3,0,0-8.14,2.33-11.63-4.65-3.49-6.98-5.81-3.49-3.49-13.96,2.33-10.47,1.16-26.75,1.16-30.24s6.49-17.64,18.12-21.13Z"/><path class="cls-13" d="m103.72,280.76s1.42-.05,2.59,1.12c1.16,1.16,1.16,3.49,1.16,3.49v1.16h-4.36s-1.45,0-1.45-1.16v-2.33l.75-1.74s1.06-.49,1.32-.54Z"/><path class="cls-13" d="m123.25,228.18s5.16,2.52,4,9.5-13.96,37.22-13.96,37.22c0,0-3.49,6.98,0,13.96,3.49,6.98,5.81,9.3,5.81,9.3,0,0-8.14,2.33-11.63-4.65-3.49-6.98-5.81-3.49-3.49-13.96,2.33-10.47,1.16-26.75,1.16-30.24s6.47-17.64,18.1-21.13Z"/><path class="cls-19" d="m110.83,221.46s-13.83-.77-19.21,6.91c-4.05,5.79-15.09,6.34-20.28,6.26-1.53-.02-2.75-1.3-2.69-2.83.39-11.46,2.82-55.75,16.83-66.43,11.06-8.43,23.4-5.18,28.43,15.37.45,1.85,0,8.45-3.07,13.06-3.01,4.52-1.53,11.91-1.54,18.44,0,2.17.12,2.25.14,2.82.09,2.06.47,4.09,1.24,6l.16.4Z"/><path d="m103.92,279.85s-3.84,1.54-3.84,4.61,9.22,16.13,14.6,16.13,4.61-3.84,4.61-3.84l-4.61-6.15s-3.84.77-6.15-1.54c-2.3-2.3-4.61-9.22-4.61-9.22Z"/><path d="m116.21,279.85s-3.84,1.54-3.84,4.61,9.22,16.13,14.6,16.13,4.61-3.84,4.61-3.84l-4.61-6.15s-3.84.77-6.15-1.54-4.61-9.22-4.61-9.22Z"/><path class="cls-13" d="m107.43,243.17s-5.62-5.3-21.12-5.3-18.31-.2-17.74-8.27c.57-8.07,28.87-15.56,54.67-1.41l-15.81,14.98Z"/><path class="cls-14" d="m80.8,182.41l-10.81,30.19-1.19,15.58s4.51-6.73,23.65-7.94l4.16-10.37-7.49-9.16-8.32-18.31Z"/><path class="cls-2" d="m104.22,278.39l7.58,2.37s.42,5.75,2.19,9.47c0,0-3.99,2.4-6.94-3.19l-2.95-7.25.12-1.4Z"/><path class="cls-8" d="m80.06,222.16s-3.42,6.02,6.56,7.68c9.99,1.66,23.3,2.5,28.3,8.32s-4.99,32.46-4.99,32.46"/><path class="cls-2" d="m115.87,278.39l7.58,2.37s1.36,6.14,3.13,9.85c0,0-4.92,2.02-7.87-3.57l-2.95-7.25.12-1.4Z"/><circle class="cls-13" cx="105.35" cy="142.04" r="13.73"/><path class="cls-11" d="m80.8,182.41s.83,24.97,8.32,29.13c7.49,4.16,36.02,1.66,36.02,1.66,0,0-1.06-1.66-3.56-2.5-2.5-.83-6.66-1.66-10.82-1.66s-13.32-2.5-14.15-4.99c-.83-2.5-.83-21.64-.83-21.64l-1.73-.38c-3.8-.84-7.73-.84-11.53,0l-1.73.38Z"/><path class="cls-1" d="m91.62,162.43s2.5,5.83,10.82,7.49c8.32,1.66,2.84-5.57,2.84-5.57l.26-3.62c.11-1.55,1.43-2.77,2.97-2.68,1.86.11,4.22-.38,5.58-3.11,2.5-4.99.83-19.14-3.33-21.64-4.16-2.5-10.82-1.66-14.15,3.33s0,17.48,0,17.48l-1.66,7.49s-1.66,0-3.33.83Z"/><path class="cls-13" d="m110.76,134.14s.83,2.5-1.66,5.83c-2.5,3.33-3.33,4.99-7.49,4.16s-4.99,4.16-2.5,5.83c1.55,1.03,2.5,6.66-1.66,9.99s-8.67,2.53-10.16,4.18c0,0,.17-8.34,4.33-11.67,4.16-3.33-1.66-16.65,7.49-20.81,9.16-4.16,11.65,1.66,11.65,1.66"/><path class="cls-13" d="m112.15,130.4s-.09,0-.14,0c-6.5.09-12.81,1.73-17.41,6.2-.39,1.75-.68,3.45-1,4.87,1.97,2.14,4.75,3.53,7.88,3.68,6.32.3,11.68-4.58,11.97-10.9.05-1.15-.07-2.27-.34-3.33-.32-.18-.64-.36-.96-.52Z"/><path class="cls-4" d="m90.33,162.89s2.12,7.87,12.94,8.7c8.59.66,4.42-4.73,2.34-6.98"/><path class="cls-13" d="m114.92,145.79c0,.46-.37.83-.83.83s-.83-.37-.83-.83.37-.83.83-.83.83.37.83.83Z"/><rect class="cls-6" x="107.43" y="141.42" width="3.83" height="5.83"/><rect class="cls-6" x="113.18" y="141.42" width="3.83" height="5.83"/><line class="cls-6" x1="100.77" y1="141.63" x2="107.43" y2="141.63"/><line class="cls-6" x1="111.26" y1="142.39" x2="113.18" y2="142.39"/><path class="cls-2" d="m99.94,149.53c0,.69-.56,1.25-1.25,1.25s-1.25-.56-1.25-1.25.56-1.25,1.25-1.25,1.25.56,1.25,1.25Z"/><path class="cls-16" d="m110.76,152.45c0,.92-.56,1.66-1.25,1.66s-1.25-.75-1.25-1.66.56-1.66,1.25-1.66,1.25.75,1.25,1.66Z"/><path class="cls-4" d="m112.43,144.96v4.43c0,.31-.25.56-.56.56h-1.93"/><path class="cls-13" d="m109.93,145.79c0,.46-.37.83-.83.83s-.83-.37-.83-.83.37-.83.83-.83.83.37.83.83Z"/><path class="cls-4" d="m99.94,145.79s-.83,0-.83,1.66,1.19.83,1.01,0c-.18-.83.65-.83.65-.83"/><path class="cls-4" d="m81.13,187.34s1.34,22.8,10.49,25.16"/><path class="cls-4" d="m122.41,208.55l10.73,1.1s4.71.22,7.82,3.55"/><path class="cls-23" d="m227.14,138.26l-10.53-20.83c.22-.22.35-.52.35-.86,0-.67-.55-1.22-1.22-1.22-.49,0-.9.29-1.09.7-2.92-.14-5.67-.79-7.7-1.41-2.63-.81-5.37-1.24-8.12-1.24h-2.61c-.07-.05-.13-.11-.21-.14v-.94c.43-.19.73-.61.73-1.11,0-.67-.55-1.22-1.22-1.22s-1.22.55-1.22,1.22c0,.5.3.93.73,1.11v.94c-.08.03-.14.09-.21.14h-2.85c-2.75,0-5.49.43-8.12,1.24-2.08.64-4.93,1.31-7.94,1.42-.19-.42-.61-.71-1.1-.71-.67,0-1.22.55-1.22,1.22,0,.33.14.64.35.86l-10.47,20.83h-1.82c0,.38.3.68.68.68h.78v.08s2.29,3.81,7.7,5.19c0,0-.01,0-.02,0,0,0,8.09,2.57,14.13-3.58.13-.13.25-.25.36-.37.04-.04.07-.08.11-.12.12-.14.23-.27.33-.39.11-.13.22-.27.33-.41h0s.3-.4.3-.4h.44c.38,0,.68-.3.68-.68h-1.52l-10.47-20.7c.25-.18.43-.44.49-.75h.33c.24-.02.51-.04.8-.05h.07s0,0,0,0c1.98-.11,5-.37,7.63-1.06,2.18-.57,4.43-.82,6.69-.82h2.91c.12.28.35.5.63.63v29.86c-.22.01-.43.03-.63.06-.07,0-.13.02-.2.03-.2.03-.4.06-.59.1,0,0,0,0,0,0,0,0-1.4.18-2.67.96h0s-.09.06-.14.08c-.8.45-1.24.86-1.24.86,0,0,0,0,0,0-.48.4-.82.77-1.06,1.06h-.24c-.81,0-1.46.65-1.46,1.46h-.06s.06,0,.06,0h17.54c0-.81-.65-1.46-1.46-1.46h-.24c-.77-.95-2.86-2.96-6.65-3.14v-29.85c.28-.12.5-.35.63-.63h2.66c2.25,0,4.51.25,6.69.82,2.56.66,5.48.94,7.45,1.05h-.02s1.15.06,1.15.06c.06.31.23.58.49.75l-10.47,20.7h-1.76c0,.38.3.68.68.68h.74v.02s.04.03.04.03v.02s2.29,3.81,7.7,5.19c0,0-.01,0-.02,0,0,0,8.08,2.57,14.12-3.58.13-.13.25-.26.36-.38.04-.04.07-.08.1-.12.12-.14.23-.27.33-.39.11-.13.22-.27.33-.41h0s.3-.4.3-.4h.44c.38,0,.68-.3.68-.68h-1.52Zm-41.31,0h-22.21l10.44-20.76c.21.17.47.29.76.29.22,0,.41-.07.58-.17l10.43,20.63Zm29.33-20.63c.18.1.37.17.58.17.29,0,.55-.12.76-.29l10.49,20.76h-22.27l10.43-20.63Z"/><rect class="cls-2" x="144.19" y="200" width="11.63" height="13.46"/><path class="cls-5" d="m147.86,210.4h-3.98c-2.2,0-3.98-1.78-3.98-3.98h0c0-2.2,1.78-3.98,3.98-3.98h3.98v7.95Z"/><polygon class="cls-21" points="94.94 216.55 86.8 298.49 90.6 298.49 100.91 216.55 94.94 216.55"/><polygon class="cls-21" points="161.18 216.55 169.32 298.49 165.52 298.49 155.21 216.55 161.18 216.55"/><polygon class="cls-21" points="221.77 216.55 213.63 298.49 217.43 298.49 227.74 216.55 221.77 216.55"/><polygon class="cls-21" points="284.69 216.55 292.82 298.49 289.03 298.49 278.72 216.55 284.69 216.55"/><rect class="cls-15" x="86.5" y="213.2" width="210.86" height="4.46" rx=".78" ry=".78"/><rect class="cls-9" x="-215.5" y="-4" width="589" height="360"/></g></g></g></g></svg>