<?xml version="1.0" encoding="UTF-8"?><svg xmlns="http://www.w3.org/2000/svg" xmlns:xlink="http://www.w3.org/1999/xlink" viewBox="0 0 275.85 286.01"><defs><style>.cls-1,.cls-2,.cls-3,.cls-4,.cls-5{stroke-width:.26px;}.cls-1,.cls-6,.cls-3,.cls-7,.cls-4,.cls-8,.cls-9,.cls-10,.cls-11,.cls-12,.cls-13,.cls-14,.cls-5,.cls-15,.cls-16,.cls-17,.cls-18{stroke-miterlimit:10;}.cls-1,.cls-7{fill:#141f3f;stroke:#141f3f;}.cls-19,.cls-20{fill:#fff;}.cls-21{fill:#1b6675;opacity:.5;}.cls-22,.cls-23{fill:#a1e5ff;}.cls-24{opacity:.36;}.cls-24,.cls-10{fill:#ffb8c8;}.cls-24,.cls-25,.cls-23{mix-blend-mode:multiply;}.cls-26{fill:#3e87a0;}.cls-27,.cls-3,.cls-12{fill:#152e57;}.cls-28{fill:#222e58;}.cls-2,.cls-6,.cls-8,.cls-9,.cls-13,.cls-29,.cls-30,.cls-14,.cls-31,.cls-32,.cls-33,.cls-15,.cls-34,.cls-16,.cls-35,.cls-36,.cls-17{fill:none;}.cls-2,.cls-6,.cls-30,.cls-37,.cls-38,.cls-31,.cls-32,.cls-33,.cls-15,.cls-34,.cls-16,.cls-35,.cls-36,.cls-17{stroke-linecap:round;}.cls-2,.cls-30,.cls-37,.cls-38,.cls-31,.cls-32,.cls-33,.cls-34,.cls-35,.cls-36{stroke-linejoin:round;}.cls-2,.cls-36{stroke:#192540;}.cls-39{fill:#ffe18c;}.cls-6,.cls-8,.cls-9{stroke:#fff;}.cls-6,.cls-9{stroke-width:.63px;}.cls-3,.cls-12,.cls-32,.cls-34{stroke:#152e57;}.cls-40{isolation:isolate;}.cls-7,.cls-11{stroke-width:.26px;}.cls-41{fill:#d6d6d6;}.cls-42{fill:#d6766f;}.cls-4{fill:#ffb1b0;stroke:#ffb1b0;}.cls-8{stroke-width:.7px;}.cls-43{clip-path:url(#clippath-1);}.cls-44,.cls-25{fill:#ffbb57;}.cls-45,.cls-46{fill:#429ac1;}.cls-47{fill:#e3e3e5;}.cls-48{fill:#e98289;}.cls-10{stroke:#ffb8c8;}.cls-10,.cls-18{stroke-width:.26px;}.cls-49{fill:#02152b;}.cls-50{opacity:.57;}.cls-11{fill:#213154;stroke:#213154;}.cls-12{stroke-width:.23px;}.cls-51{clip-path:url(#clippath);}.cls-52{fill:#192540;}.cls-13{stroke-width:1.94px;}.cls-13,.cls-15,.cls-16{stroke:#ffbb57;}.cls-30{stroke:#1b6675;}.cls-30,.cls-31,.cls-32,.cls-36{stroke-width:1.05px;}.cls-37{stroke-width:.41px;}.cls-37,.cls-38{fill:#203d4f;stroke:#203d4f;}.cls-53{fill:#ba6b6b;}.cls-20{opacity:.74;}.cls-38{stroke-width:.45px;}.cls-14{stroke:#3e56a0;stroke-width:1.63px;}.cls-31,.cls-35{stroke:#222e58;}.cls-25{opacity:.11;}.cls-5{fill:#de8186;stroke:#de8186;}.cls-33{stroke:#223858;}.cls-33,.cls-35{stroke-width:.26px;}.cls-46{opacity:.47;}.cls-54{fill:#f7f8f9;}.cls-15{stroke-width:2.6px;}.cls-55{fill:#223858;}.cls-34{stroke-width:.17px;}.cls-16{stroke-width:2.33px;}.cls-17{stroke:#429ac1;stroke-width:.87px;}.cls-56{fill:#f2f2f2;}.cls-23{opacity:.25;}.cls-18{fill:#ffa3b8;stroke:#ffa3b8;}.cls-57{fill:#2d81ab;}</style><clipPath id="clippath"><circle class="cls-29" cx="152.88" cy="161.8" r="122.97" transform="translate(-69.63 155.49) rotate(-45)"/></clipPath><clipPath id="clippath-1"><circle class="cls-29" cx="155.15" cy="15.57" r="15.57"/></clipPath></defs><g class="cls-40"><g id="Capa_2"><g id="Capa_1-2"><circle class="cls-23" cx="152.88" cy="161.8" r="122.97" transform="translate(-69.63 155.49) rotate(-45)"/><g class="cls-51"><path class="cls-31" d="m211.03,195.9c6.54,10.46,16.75,26.84,23.34,37.42,2.78,4.46-.41,10.26-5.62,10.24l-55.66-.17c-5.09-.02-8.26-5.6-5.7-10.04l21.73-37.8"/><path class="cls-26" d="m226.22,198.05h-51.01c-2.29,0-4.15-1.86-4.15-4.15h0c0-.84.68-1.52,1.52-1.52h56.26c.84,0,1.52.68,1.52,1.52h0c0,2.29-1.86,4.15-4.15,4.15Z"/><path class="cls-10" d="m161.84,229.22c-1.23,9.23,1.21,13.38,1.21,13.38,0,0-22.3.49-23.05-.44-.75-.93,9.33-5.71,9.33-5.71,0,0-.38-2.75-2.17-7.08l14.68-.16Z"/><path class="cls-37" d="m162.77,236.34c-.34.02-18.69,3.12-14.24.1,0,0-11.9,3.54-10.35,7.16l24.26-.17.33-7.09Z"/><path class="cls-45" d="m168.76,231.67c-.8-10.03-.75-36.25-1.13-37.31-.37-1.06,42.47-8.92,42.45-18.54-.02-9.61-18.7-11.04-18.7-11.04,0,0-29.16,3.73-38.86,10.07-9.69,6.34-5.12,57.66-5.12,57.66l21.35-.86Z"/><path class="cls-10" d="m179.21,229.08c-1.36,10,1.34,14.5,1.34,14.5,0,0-24.69.54-25.52-.47-.83-1.01,10.33-6.19,10.33-6.19,0,0-.42-2.98-2.4-7.67l16.25-.17Z"/><path class="cls-38" d="m180.25,236.8c-.38.02-20.69,3.38-15.77.11,0,0-12.83,3.37-11.12,7.29l26.13-.33.76-7.07Z"/><path class="cls-22" d="m162.06,232.36s-6.4-50.54,1.53-55.36c9.54-5.79,50.7-11.52,50.7-11.52,0,0,2.9,10.34,1.2,22.69-1.04,7.58-21.63,7.38-30,6.72-1.85-.14-3.42,1.32-3.4,3.17.07,7.94-1.56,26.67-1.43,34.72l-18.61-.43Z"/><path class="cls-55" d="m184.25,114.44s-3.78-2.44-8.51,1.8c-12.97,11.63-25.57,25.87-9.93,40.22l.52,17.01,59.68-.64c14.95-13.7-7.04-40.07-16.37-51.95-5.67-7.22-11.09-5.8-11.09-5.8l-14.31-.64Z"/><path class="cls-10" d="m227.2,173.81s8.13-4.25,4.64-15.14c-3.49-10.89-20.19-6.62-26.48-1.4-5.15,4.28-8.7,7.97-10.56,9.93-.83.87-1.91,1.46-3.08,1.7,0,0-7.25-.22-7.76,4.7"/><path class="cls-24" d="m227.2,173.81l-43.24-.21s36.31.48,46.77-13.32l1.11-1.61c3.49,10.89-4.64,15.14-4.64,15.14"/><path class="cls-10" d="m183.87,95.91c-.35.09-7.8,13.84,1.99,14.98,0,0-.72,1.12-1.2,1.99,0,0,2.62,6.18,11.41.92,0,0-.49-8.08-.48-9.57,0,0,3.03-.56,2.84-5.17,0,0-1.56-3.35-5.14-.42,0,0-.6.81-.13-1.27.57-2.51,2.63-6.79-2.63-1.59,0,0-1.23,1.05-1.75-1.06,0,0-1.27-.62-2.29.56-1.02,1.18-2.64.65-2.64.65Z"/><path class="cls-55" d="m184.96,110.94l2.74-.24-3.25,5.54s.77-4.25.51-5.3Z"/><path class="cls-18" d="m195.03,105.58l-.35,9.22s1.5-.69,1.57-1.04l-.48-8.09s-.31.01-.74-.09Z"/><path class="cls-22" d="m196.24,112.17s-3.65,3.88-7.93,3.57l1.45,5.63,9.33-6.5-2.85-2.7Z"/><path class="cls-22" d="m184.9,112.01s.22,3.33,3.38,3.73l-2.2,5.06c-.13.33-.47.37-.59.07l-2.8-6.98,2.21-1.87Z"/><path class="cls-35" d="m196.32,102.02l-.26-1.06s-1.19.48-1.63,1.7"/><path class="cls-28" d="m185.34,101.35c-.11.41-.34.47-.54.42-.2-.05-.26-.31-.16-.72.11-.41.36-.7.57-.64.2.05.24.53.13.94Z"/><path class="cls-28" d="m182.84,100.63c.07-.04.22.51-.28.23-.43-.24.47-2.13.42-.81l-.14.59Z"/><path class="cls-55" d="m196.34,105.59c-.33.24-.77.31-1.14.12-.36-.18-.52-.53.55-1.2,1.94-1.22,3.26-2.2,2.44-4.8-.82-2.59-3.41-.28-4.51.55-1.1.83-.86-.72-.35-2.61.37-1.37.86-2.66-2.36-1.29,0,0-4.26,1.16-7.25.09-1.71-.61-1.82-3.97-.52-6.59,1.4-2.8,6.03-3.39,11.98-1.44,1.39.46,2.87,1.65,3.03,1.79,1.43,1.2,8.18,7.93-1.86,15.36Z"/><path class="cls-28" d="m182.94,103.94s-.03,0-.05,0l-1.71-.66s-.03-.01-.04-.03c-.08-.07-.11-.18-.09-.28.02-.1.1-.19.2-.22,1.44-.46,1.58-2.78,1.55-3.02,0-.07.04-.13.11-.15s.13.03.15.1c.04.21-.07,2.77-1.73,3.31-.02,0-.03.02-.03.03,0,0,0,.01,0,.02l1.67.65c.07.03.1.1.07.17-.02.05-.07.08-.12.08Z"/><path class="cls-55" d="m192.84,99.21s-.36,5.71-1.96,7.68c-1.6,1.97-6.86.98-6.47-1.85,0,0,.08-.95-2.1-1.62l-1.4-.49s-2.11,6.03,4.18,8.04c0,0,9.39.91,8.58-10.71l1.3-3.7-2.12,2.64Z"/><path class="cls-28" d="m185.55,98.74s1.71-.35,2.23.99"/><path class="cls-28" d="m181.87,97.27s1.67-.52,2.32.76"/><path class="cls-10" d="m148.19,114.39c.37,1.41.35,2.89-.08,4.25-.97,3.06-1.93,13.29-2.02,21.32-.1,9.33,2.71,23.07,9,23.77,13.95,1.54,14.46-7.4,14.46-11.14,0-13.46-15.17-40.17-15.17-40.17l-6.19,1.96Z"/><path class="cls-18" d="m148.81,103.38c.15.39-1.5,3.85-1.71,4.78l1.83,2.69,2.43-2.47-2.55-5Z"/><path class="cls-10" d="m154.4,112.97s.06-4.43-2.45-7.5c0,0-3.21-3.95-4.13-4.56-.92-.61.37,2.22,1.45,4.72,1.08,2.5,2.13,4.54.51,3.82-1.62-.72-3.25-2.7-3.88-1.95s2.22,8.79,4.68,9.27l3.82-3.79Z"/><rect class="cls-39" x="119.73" y="171.15" width="54.9" height="2.78" rx=".64" ry=".64"/><path class="cls-14" d="m18.86,250.56v-63.63c0-7.15,5.34-12.94,11.92-12.94h246.22c6.58,0,11.92,5.79,11.92,12.94v63.63"/><path class="cls-28" d="m16.68,248.61h4.41c1.62,0,2.93,1.31,2.93,2.93h-10.26c0-1.62,1.31-2.93,2.93-2.93Z"/><path class="cls-47" d="m205.57,247.25c0,.4-4.11.69-11.75.69s-13.83-.32-13.83-.72,6.19-.72,13.83-.72,11.75.35,11.75.75Z"/><path class="cls-47" d="m239.41,247.28c0,.4-4.11.69-11.75.69s-13.83-.32-13.83-.72,6.19-.72,13.83-.72,11.75.35,11.75.75Z"/><path class="cls-5" d="m222.71,172.99s8.86-2.73,5.1-9.83c-3.76-7.1-24.63-1.98-31.49,1.39-5.62,2.76-6.13,3.01-8.86,3.97-1.03.36-2.08.94-3.36,1.09-2.7.32-7.42,1.14-8.46,3.02-1.48,2.68,0,0,0,0l47.08.36"/><path class="cls-39" d="m242.56,136.72c.13-2.88-1.96-5.46-4.84-5.7-2.2-.19-4.94.95-7.8,5.5-6.68,10.63-11.62,22.49-11.62,22.49,0,0,8.54,15.53,8.35,14.54-.18-.96,14.86-13.82,15.91-36.83Z"/><path class="cls-44" d="m245.84,121.29c10.64,10.05,9.43,25.64,16.06,48.83l-24.75,1.55c-10.83-18.56-21.84-20.13-5.2-52.28.36-.7,1.43-1.12,2.73-1.39,4.02-.8,8.18.47,11.16,3.29Z"/><path class="cls-25" d="m262.49,159.35s-35.6-5.57-37.45-7.66c-3.24-3.64,7.99,13.46,7.99,13.46l4.18,6.38,15.92-1.22,9.37-10.96Z"/><path class="cls-32" d="m257.25,199.21c6.54,10.46,16.75,26.84,23.34,37.42,2.78,4.46-.41,10.26-5.62,10.24l-55.66-.17c-5.09-.02-8.26-5.6-5.7-10.04l21.73-37.8"/><polygon class="cls-5" points="196.32 234.81 195.02 241.63 187.13 241.37 188.49 234.52 196.32 234.81"/><path class="cls-26" d="m263.07,173.86s13.2,25.82-19.76,24.88c-12.18-.35-38.6-6.06-46.69,36.22l-12.27-.43s10.53-59,21.48-60.92c6.96-1.22,34.03-1.16,34.03-1.16l23.2,1.42Z"/><polygon class="cls-5" points="226.41 235.66 227.84 241.14 219.69 240.87 218.19 234.7 226.41 235.66"/><path class="cls-55" d="m265.64,169.48s22.17,29.65-19.18,27.64c-12.17-.59-40.01-5.22-18.09,39.67l-15.31-.35s-15.83-58.17-6.55-60.49c13.34-3.33,33.62-1.7,33.62-1.7l-2.71-2.58,28.23-2.19Z"/><path class="cls-26" d="m272.43,201.36h-51.01c-2.29,0-4.15-1.86-4.15-4.15h0c0-.84.68-1.52,1.52-1.52h56.26c.84,0,1.52.68,1.52,1.52h0c0,2.29-1.86,4.15-4.15,4.15Z"/><path class="cls-5" d="m222.29,103.95c-.29.22-.24,16.99,8.59,12.12,0,0,.7,1.7.81,7.95,0,0,5.29.34,8.91-5.74,0,0-3.69-8.15-4.27-9.53,0,0,3.71-2.64,1.43-4.89,0,0-2.87-1.95-3.62,2.63,0,0-2.08-.97-1.96-3.55.12-2.58-2.49-1.82-3.05-.45,0,0-.73,1.45-2.03-.3,0,0-.38,1.03-1.9,1.41-.66.16-2.92.35-2.92.35Z"/><path class="cls-34" d="m236.67,106.12l-.43-.58s-.61.6-.56,1.47"/><path class="cls-27" d="m230.54,116.42l2.33-1.35-1.26,9.18s-.49-7.05-1.07-7.83Z"/><path class="cls-53" d="m235.53,110.37c.66,10.07,4,9.6,4,9.6,0,0,1.33-1.38,1.25-1.74l-4.36-9.67s-.93,1.1-.89,1.8Z"/><path class="cls-44" d="m195.92,239.4l-1.48,8.44h-1.51s1.07-5.55-.17-5.19c-3.02.88-5.32,5.16-5.32,5.16l-10.59-.09s3.41-6.06,10.46-8.41l8.61.09Z"/><path class="cls-44" d="m227.76,239.48l3,8.35h-2.52s-1.87-5.77-3.03-5.19c-1.93.97-1.84,5.16-1.84,5.16l-14.07-.09s3.98-6.01,10.03-8.23h8.44Z"/><path class="cls-27" d="m224.97,107.04s1.53-.85,2.42.28"/><path class="cls-27" d="m222.08,107.68s.78-1.08,1.58-.13"/><path class="cls-3" d="m256.13,124.13c-.28-.89,17.9-.51,4.63-4.29-10.96-3.13-16.38-18.64-21.11-22.01-.28-.2-.31-.61-.48-.93-.27-.51-.44-.84-.51-.9,0,0,0,.03-.02.07-3.15-3.9-11.94-.09-13.29,1.35-.14.15-.32.24-.52.26-.98.11-3.9,1.64-2.74,6.24.06.24,8.33,1.11,8.51,1.68.38,1.2,1.57-.08,2.49,1.24.41.59,1.32.41,1.51-.28.4-1.5,1.2-3.41,2.56-2.56,2.34,2.15,1.22,3.45-.48,4.41-.05.05-.09.1-.13.13-.14.14-.22.32-.24.52,0,.11.75,5.18,4.3,9.33,1.78,2.08,5.66,2.83,6.61,4.93,4.1,9.11-1.12,18.95-1.12,18.95,0,0,13.38-7.41,10.03-18.15Z"/><path class="cls-39" d="m241.76,118.57s-1.57-.87-1.74-.43c-.85,2.12-5.36,5-8.81,5.36,0,0,2.7,12.24,10.55-4.93Z"/><path class="cls-39" d="m231.47,123.41s-1.97,2.99-2.67,1.25,2.61-4.78,2.61-4.78l.06,3.54Z"/><path class="cls-39" d="m249.78,124.68c-2.22-1.85-5.53-1.73-7.47.41-1.48,1.64-2.23,4.51-.33,9.54,4.44,11.74,10.9,27.82,10.9,27.82,0,0,17.54,2.58,16.63,2.13-.88-.43-2.03-25.16-19.73-39.9Z"/><path class="cls-5" d="m264.15,172.76s8.85-2.77,5.05-9.85c-3.8-7.08-24.64-1.86-31.48,1.53-5.61,2.78-6.12,3.04-8.84,4.01-1.03.37-2.07.95-3.36,1.11-6.02-.02-8.45,3.06-8.45,3.06h0l47.08.14"/><path class="cls-42" d="m228.48,109.94c-.89.38-1.3,1.41-.92,2.29.38.89,1.41,1.3,2.29.92.89-.38,1.3-1.41.92-2.29-.38-.89-1.41-1.3-2.29-.92Z"/><path class="cls-42" d="m223.65,113.41c.51-.49.51-1.15.22-1.84-.18-.42-.67-.6-1.06-.77l.84,2.61Z"/><path class="cls-33" d="m224.67,111.85c-.17.07-.36-.08-.33-.26l.24-1.74"/><path class="cls-49" d="m225.81,109.43c.01.34-.11.63-.27.63-.17,0-.31-.26-.33-.61-.01-.34.11-.63.27-.63.17,0,.31.26.33.61Z"/><path class="cls-49" d="m223.69,109.44c.01.33-.1.6-.26.61-.16,0-.3-.25-.31-.58-.01-.33.1-.6.26-.61s.3.25.31.58Z"/></g><circle class="cls-22" cx="155.15" cy="15.57" r="15.57"/><rect class="cls-9" x="147.86" y="18.54" width="5.63" height="5.63"/><polyline class="cls-6" points="149.02 20.62 150.03 22.46 155.45 16.4"/><rect class="cls-9" x="147.86" y="7.29" width="5.63" height="5.63"/><polyline class="cls-6" points="149.02 9.37 150.03 11.21 155.45 5.15"/><g class="cls-50"><g class="cls-43"><path class="cls-57" d="m171.29,10.94h-13.13c-.58,0-1.04-.47-1.04-1.04h0c0-.58.47-1.04,1.04-1.04h13.13c.58,0,1.04.47,1.04,1.04h0c0,.58-.47,1.04-1.04,1.04Z"/><path class="cls-57" d="m172.31,22.11h-14.13c-.59,0-1.07-.48-1.07-1.07h0c0-.59.48-1.07,1.07-1.07h14.13c.59,0,1.07.48,1.07,1.07h0c0,.59-.48,1.07-1.07,1.07Z"/></g></g><circle class="cls-22" cx="106.24" cy="49.05" r="31.83" transform="translate(-3.57 89.49) rotate(-45)"/><path class="cls-46" d="m75.94,17.27h0c-1.25,0-2.27,1.02-2.27,2.27v3.42h6.72s.32-5.69-4.45-5.69Z"/><path class="cls-54" d="m118.58,21.6c0-2.39-1.94-4.33-4.33-4.33h-38.31c2.39,0,4.33,1.94,4.33,4.33v3.95h-.07v45.5c0,2.87,2.33,5.2,5.2,5.2h33.11V26.49h.07v-4.89Z"/><path class="cls-44" d="m97.19,57.88c0,2.27-1.84,4.1-4.1,4.1s-4.1-1.84-4.1-4.1,1.84-4.1,4.1-4.1,4.1,1.84,4.1,4.1Z"/><path class="cls-46" d="m82.29,75.24l8.14-7.71,1.87,8.86s-5.77.18-7.67-.07c-.64-.09-2.2-.58-2.34-1.08Z"/><path class="cls-19" d="m86.16,76.54c2.39,0,4.33-1.94,4.33-4.33v-4.89h38.31v4.89c0,2.39-1.94,4.33-4.33,4.33h-38.31Z"/><line class="cls-17" x1="87.21" y1="27.76" x2="112.56" y2="27.76"/><line class="cls-17" x1="87.21" y1="38.85" x2="112.56" y2="38.85"/><line class="cls-17" x1="87.21" y1="42.45" x2="112.56" y2="42.45"/><line class="cls-17" x1="87.21" y1="46.05" x2="112.56" y2="46.05"/><path class="cls-20" d="m122.76,45.79c0,4.29-3.48,7.78-7.78,7.78s-7.78-3.48-7.78-7.78,3.48-7.78,7.78-7.78,7.78,3.48,7.78,7.78Z"/><path class="cls-13" d="m122.76,45.79c0,4.29-3.48,7.78-7.78,7.78s-7.78-3.48-7.78-7.78,3.48-7.78,7.78-7.78,7.78,3.48,7.78,7.78Z"/><line class="cls-15" x1="120.67" y1="51.62" x2="126.72" y2="57.09"/><circle class="cls-39" cx="203.47" cy="39.72" r="19.27"/><line class="cls-16" x1="203.5" y1="25" x2="203.5" y2="52.09"/><path class="cls-12" d="m207.43,53.25h-7.87c0-1.79,1.45-3.24,3.24-3.24h1.39c1.79,0,3.24,1.45,3.24,3.24h0Z"/><path class="cls-12" d="m211.13,55.79h-14.81c0-1.41,1.14-2.55,2.55-2.55h9.72c1.41,0,2.55,1.14,2.55,2.55h0Z"/><line class="cls-8" x1="190.19" y1="26.98" x2="195.74" y2="36.36"/><line class="cls-8" x1="190.07" y1="27.1" x2="184.4" y2="36.36"/><line class="cls-8" x1="216.57" y1="26.98" x2="222.12" y2="36.36"/><line class="cls-8" x1="216.45" y1="27.1" x2="210.78" y2="36.36"/><line class="cls-16" x1="189.96" y1="27.1" x2="217.03" y2="27.1"/><circle class="cls-44" cx="203.66" cy="27.07" r="3.25"/><path class="cls-44" d="m191.84,39.94h-3.47c-2.3,0-4.17-1.86-4.17-4.17h11.8c0,2.3-1.86,4.17-4.17,4.17Z"/><path class="cls-44" d="m218.19,39.94h-3.47c-2.3,0-4.17-1.86-4.17-4.17h11.8c0,2.3-1.86,4.17-4.17,4.17Z"/><path class="cls-39" d="m145.53,38.91c0,1.21-.98,2.19-2.19,2.19s-2.19-.98-2.19-2.19.98-2.19,2.19-2.19,2.19.98,2.19,2.19Z"/><path class="cls-39" d="m235.12,54.63c0,.92-.75,1.67-1.67,1.67s-1.67-.75-1.67-1.67.75-1.67,1.67-1.67,1.67.75,1.67,1.67Z"/><path class="cls-22" d="m179.04,2.56c0,.92-.75,1.67-1.67,1.67s-1.67-.75-1.67-1.67.75-1.67,1.67-1.67,1.67.75,1.67,1.67Z"/><path class="cls-22" d="m65.25,37.62c0,1.3-1.05,2.35-2.35,2.35s-2.35-1.05-2.35-2.35,1.05-2.35,2.35-2.35,2.35,1.05,2.35,2.35Z"/><path class="cls-19" d="m138.44,85.83c0,1.14-.92,2.06-2.06,2.06s-2.06-.92-2.06-2.06.92-2.06,2.06-2.06,2.06.92,2.06,2.06Z"/><path class="cls-22" d="m275.04,249.19v36.81h-41.41s40.36-37.86,41.41-36.81Z"/><path class="cls-7" d="m41.6,168.38s-2.11,22.18,23.79,25.52c11.89,1.53,31.78-.56.53,39.65l8.42,5.45s53.17-49.54,40.59-60.61c-12.58-11.08-39.04-15.72-39.04-15.72l-34.29,5.71Z"/><path class="cls-44" d="m69.75,228.33l-4.87,5.57,13.17,13.21s3.66-6.96-1.34-12.97l-6.96-5.8Z"/><line class="cls-30" x1="77.97" y1="236.58" x2="75.08" y2="236.27"/><line class="cls-30" x1="78.83" y1="237.93" x2="75.94" y2="237.62"/><path class="cls-11" d="m40.06,176.77s8.33,26.56,33.97,21.55c11.76-2.3,29.51-9.34,12.55,38.67l10.18,1.3s34.82-63.78,19.39-70.32c-15.43-6.54-42.01-2.6-42.01-2.6l-34.08,11.4Z"/><path class="cls-44" d="m86.49,237.08l-3.13,9.07,21.22.6s-4.72-7.03-8.03-8.44l-10.07-1.23Z"/><line class="cls-30" x1="97.86" y1="239.1" x2="95.6" y2="240.93"/><line class="cls-30" x1="98.82" y1="240.14" x2="96.56" y2="241.97"/><path class="cls-48" d="m121.65,114.27s2.03-5.57,2.86-5.18c.83.39,1.11,3.05,1.11,3.05l-3.97,2.13Z"/><path class="cls-4" d="m124.88,120.37s6.24-4.55,6.72-12.33c.02-.39-.41-.63-.73-.4l-10.09,7.13s2.4,4.73,4.1,5.6Z"/><path class="cls-45" d="m70.81,143.73c22.82,12.08,25.37,6.94,32.43,1.05,5.04-4.2,22.17-24.24,22.17-24.24l-4.01-7.33s1.26-.84-17.82,11.19c-20.01,12.62-19.35,5.12-25.13-2.18,0,0-3.05-2.59-4.51-1.25"/><path class="cls-56" d="m121.43,113l4.69,7.13-.93,1.89-5.42-7.99s.4-.75,1.66-1.02Z"/><path class="cls-21" d="m79.24,127.62s11.03,24.23,22.63,18.33c0,0-7.93,8.8-20.43,3.03l-2.2-21.36Z"/><path class="cls-36" d="m64.07,198.52c6.54,10.46,16.75,26.84,23.34,37.42,2.78,4.46-.41,10.26-5.62,10.24l-55.66-.17c-5.09-.02-8.26-5.6-5.7-10.04l21.73-37.8"/><path class="cls-26" d="m79.26,200.67H28.25c-2.29,0-4.15-1.86-4.15-4.15h0c0-.84.68-1.52,1.52-1.52h56.26c.84,0,1.52.68,1.52,1.52h0c0,2.29-1.86,4.15-4.15,4.15Z"/><path class="cls-57" d="m74.87,116.47c8.68,13.14,6.83,52.37,6.83,52.37l-41.51,9.02s-5.42-39.4,7.73-57.49c.85-1.17,3.73-6.93,19.09-10.56,0,0,4.45,1.52,7.85,6.66Z"/><path class="cls-4" d="m79.51,96.64c.32.17,2.53,15.8-6.4,14.23,0,0-.96-.39-.12,5.8,0,0-6.02,0-10.53-5.46,0,0,2.44-7.75,2.8-9.2,0,0-2.82-1.28-1.5-5.72,0,0,1.58-2.69,4.34,1.03,0,0,1.36,1.4.85-1.13s-.55-7.52,3.29-1.18c0,0,.95,1.32,1.96-.61,0,0,1.39-.29,2.09,1.1.7,1.4,3.23,1.13,3.23,1.13Z"/><path class="cls-55" d="m73.02,111.03l-2.5-.7,2.29,5.92s-.29-4.25.22-5.21Z"/><path class="cls-48" d="m65.48,103.46l-1.91,9.05s-1.3-1.04-1.28-1.4l2.44-7.75s.3.09.75.1Z"/><path class="cls-55" d="m64.21,103.15c.26.32.68.49,1.08.4.39-.09.64-.39-.24-1.3-1.59-1.66-2.64-2.94-1.21-5.27,1.43-2.32,3.39.56,4.26,1.63.87,1.07,1.01-.49.98-2.45-.02-1.42-.19-2.8,2.61-.67,0,0,.96.61,2.29-.84.99-1.08,1.56,2.88,4.73,2.7s3.77-3.09,3.68-6.01c-.09-2.92-1.89-5.2-3.1-3.78-1.17,1.37-3.52-1.25-9.78-.8-1.46.11-3.2.91-3.39,1-1.68.82-9.9,5.72-1.93,15.4Z"/><path class="cls-1" d="m63.55,96.53c-1.43,2.32-.09,4.06,1.5,5.72.87.91.63,1.21.24,1.3-.4.09-.82-.08-1.08-.4-7.96-9.68.32-14.38,2.01-15.2,0,0-6.15,4.11-3.09,8.4l.43.17Z"/><path class="cls-2" d="m65.09,99.68l.51-.96s1.04.75,1.17,2.06"/><path class="cls-52" d="m77.92,102.32c.02.32-.09.58-.26.59-.16.01-.32-.24-.34-.55-.02-.32.09-.58.26-.59.16-.01.32.24.34.55Z"/><path class="cls-52" d="m79.78,102.08c.02.32-.09.58-.26.59-.16.01-.32-.24-.34-.55-.02-.32.09-.58.26-.59.16-.01.32.24.34.55Z"/><path class="cls-2" d="m78.89,105.14c.12,0,.77-.12.72-.23,0,0-.62-.69-.75-.96-.21-.44-.43-1.91-.43-1.91"/><path class="cls-52" d="m75.91,100.48c.86-.75,1.83-.82,1.83-.82-.25-.5-.93-.66-1.5-.37-.22.11-.48.37-.54.69-.03.13.02.63.21.5Z"/><path class="cls-52" d="m78.87,99.76c1.13-.17,1.98.29,1.98.29.05-.56-.43-1.05-1.07-1.11-.24-.02-.6.06-.82.29-.09.1-.32.55-.09.53Z"/><path class="cls-19" d="m75.87,105.67c-.03-.11,3.71.12,3.71.12,0,0-.15.83-.62,1.22-.47.39-2.82-.36-3.09-1.34Z"/><path class="cls-19" d="m62.99,108.76s2.34,4.96,10.03,7.93l-2.47,5.51c.07.39-.66-.17-.98-.4-2.69-1.87-7.4-7.44-8.69-10.35,0,0,1.56-1.99,2.11-2.69Z"/><path class="cls-19" d="m72.83,115.99l.6,5.51c0,.05.08.05.09,0l.36-5.71-1.08-2.27.04,2.47Z"/><path class="cls-41" d="m72.88,114.66c.13.03.81,1.67.81,1.67l-.75.39-.05-2.06Z"/><polygon class="cls-44" points="72.96 116.91 73.47 121.45 72.36 124.32 70.71 121.82 72.96 116.91"/><path class="cls-4" d="m91.37,166.98s6.96-.51,11.55,6.61l-12-.36s-.53-4.61.45-6.26Z"/><path class="cls-45" d="m59.01,121.4s-12.08-4.55-15.98,11.09c-3.82,15.29-6.79,43.2,19.32,42.56,1.17-.03,23.93-.43,28.21-1.65,0,0,.9-7.29.64-7.82-.25-.51-5.73-.61-20.81-4.5-1.6-.41-5.33-.8-6.23-2.19-1.45-2.23.49-14.86.26-24.35-.09-3.55-.52-10.05-5.41-13.15Z"/><path class="cls-56" d="m91.47,165.58l-.87,8.49-1.91.88.84-9.62s.78-.33,1.94.26Z"/><line class="cls-36" x1="4.64" y1="246.44" x2="104.59" y2="246.44"/><path class="cls-44" d="m5.16,234.58c0,1.42-1.15,2.58-2.58,2.58s-2.58-1.15-2.58-2.58,1.15-2.58,2.58-2.58,2.58,1.15,2.58,2.58Z"/></g></g></g></svg>